<?xml version="1.0" standalone="no"?>
<!DOCTYPE svg PUBLIC "-//W3C//DTD SVG 20010904//EN"
 "http://www.w3.org/TR/2001/REC-SVG-20010904/DTD/svg10.dtd">
<svg version="1.0" xmlns="http://www.w3.org/2000/svg"
 width="1000.000000pt" height="406.000000pt" viewBox="0 0 1000.000000 406.000000"
 preserveAspectRatio="xMidYMid meet">

<g transform="translate(0.000000,406.000000) scale(0.100000,-0.100000)"
fill="#000000" stroke="none">
<path d="M6479 3296 c-11 -26 -18 -50 -16 -53 3 -2 10 12 17 31 6 20 15 38 20
41 5 3 18 -24 30 -60 25 -75 49 -102 97 -111 29 -5 40 0 94 45 33 28 57 51 52
51 -4 0 -31 -20 -60 -45 -57 -50 -74 -54 -119 -26 -25 15 -37 34 -54 88 -12
37 -26 72 -31 77 -5 6 -17 -10 -30 -38z"/>
<path d="M6399 3162 c-93 -113 -147 -195 -160 -245 -6 -26 -9 -50 -6 -53 3 -3
8 13 12 35 7 45 73 152 151 246 49 59 68 85 62 85 -2 0 -28 -31 -59 -68z"/>
<path d="M6779 3203 c-2 -10 -1 -58 2 -108 l5 -90 2 108 c2 101 -1 129 -9 90z"/>
<path d="M6782 2930 c6 -23 13 -39 15 -36 7 7 -8 76 -17 76 -4 0 -3 -18 2 -40z"/>
<path d="M6794 2818 c0 -37 3 -54 7 -42 10 25 11 104 2 104 -5 0 -8 -28 -9
-62z"/>
<path d="M6216 2814 c-4 -20 -5 -38 -3 -40 3 -3 8 11 11 32 4 20 5 38 3 40 -3
3 -8 -11 -11 -32z"/>
<path d="M6196 2745 c-3 -9 -6 -22 -5 -28 0 -7 5 -1 10 12 5 13 8 26 5 28 -2
2 -6 -3 -10 -12z"/>
<path d="M6778 2725 c-3 -14 -1 -25 3 -25 5 0 9 11 9 25 0 14 -2 25 -4 25 -2
0 -6 -11 -8 -25z"/>
<path d="M6181 2689 c-1 -22 -163 -339 -197 -387 l-26 -37 30 35 c39 44 206
373 199 391 -4 10 -6 10 -6 -2z"/>
<path d="M6770 2684 c0 -5 -7 -49 -15 -99 -14 -82 -13 -98 2 -175 9 -46 18
-79 20 -73 2 6 -3 45 -11 86 -14 66 -14 84 0 167 8 51 12 95 9 98 -3 3 -5 1
-5 -4z"/>
<path d="M5495 2410 c-10 -11 -13 -20 -8 -20 6 0 13 7 17 15 8 22 79 20 98 -2
24 -29 27 -48 11 -82 -27 -54 -90 -54 -123 1 -10 17 -16 38 -13 47 4 13 3 14
-5 2 -22 -31 38 -101 85 -101 35 0 76 42 76 78 0 70 -93 111 -138 62z"/>
<path d="M7535 2401 c-26 -5 16 -8 122 -8 146 -1 165 -3 205 -23 52 -25 74
-59 77 -115 3 -74 -58 -138 -161 -171 -32 -10 -58 -24 -58 -31 0 -7 1 -13 3
-13 1 0 17 -4 35 -9 20 -6 30 -6 27 0 -4 5 -15 9 -25 9 -41 0 -27 20 25 36 61
20 127 70 150 115 21 39 19 98 -5 137 -33 54 -90 73 -233 77 -67 2 -140 0
-162 -4z"/>
<path d="M2895 2385 c-37 -7 -52 -13 -40 -16 11 -3 29 -2 41 2 11 4 44 10 72
13 57 6 59 4 42 -48 -33 -103 -52 -177 -48 -181 6 -6 68 205 68 229 0 19 -45
20 -135 1z"/>
<path d="M7392 2388 c3 -7 16 -14 31 -16 60 -7 59 -27 -14 -288 -55 -197 -68
-248 -63 -253 5 -5 9 8 33 99 26 98 79 294 94 345 6 22 10 49 9 59 -3 22 -30
45 -54 46 -10 0 -18 5 -18 10 0 6 -5 10 -11 10 -6 0 -9 -6 -7 -12z"/>
<path d="M1964 2380 c2 -16 20 -14 24 2 3 10 2 10 -6 -1 -7 -9 -11 -10 -15 -2
-4 7 -5 8 -3 1z"/>
<path d="M1360 2370 c-19 -4 -52 -11 -72 -14 -43 -8 -49 -26 -15 -41 26 -12
28 -53 5 -130 -33 -108 -87 -319 -84 -323 2 -2 11 20 18 50 8 29 29 107 47
173 18 66 37 130 42 143 18 45 11 80 -18 96 l-28 14 40 7 c22 4 56 11 76 15
53 11 85 7 81 -10 -18 -72 -45 -167 -53 -181 -5 -10 -9 -28 -8 -41 0 -23 44
104 59 172 4 19 8 40 10 45 9 36 -20 43 -100 25z"/>
<path d="M1911 2354 c-12 -15 -21 -32 -21 -38 0 -6 6 -2 12 9 6 11 18 28 26
38 8 9 12 17 9 17 -3 0 -15 -12 -26 -26z"/>
<path d="M2010 2365 c7 -8 17 -15 22 -15 6 0 5 7 -2 15 -7 8 -17 15 -22 15 -6
0 -5 -7 2 -15z"/>
<path d="M731 2344 c-71 -36 -104 -86 -109 -168 -5 -82 12 -116 118 -230 79
-85 119 -149 120 -191 0 -28 -34 -81 -66 -102 -50 -33 -132 -14 -189 43 -29
29 -41 56 -56 126 -7 30 -16 48 -25 48 -8 0 -14 -8 -14 -17 0 -15 2 -16 9 -4
8 12 11 8 16 -15 27 -134 94 -204 195 -208 46 -1 53 2 92 42 39 38 43 47 42
91 -1 57 -16 82 -122 195 -93 100 -116 146 -110 225 5 68 34 114 94 152 49 30
152 37 227 15 70 -20 106 -20 129 1 10 9 21 13 24 10 8 -7 -34 -198 -46 -210
-4 -5 -12 12 -19 36 -6 25 -23 60 -38 78 -28 33 -94 69 -128 68 -11 0 5 -8 35
-19 77 -26 130 -96 130 -171 0 -9 6 -16 14 -16 10 0 24 37 44 118 16 65 27
121 24 124 -9 9 -42 5 -42 -5 0 -19 -47 -21 -107 -6 -95 25 -179 21 -242 -10z"/>
<path d="M2810 2361 c0 -5 14 -16 30 -25 17 -8 30 -10 30 -4 0 5 -9 12 -20 15
-11 3 -20 9 -20 14 0 5 -4 9 -10 9 -5 0 -10 -4 -10 -9z"/>
<path d="M7646 2362 c-2 -4 12 -6 32 -4 40 4 92 -27 92 -54 0 -8 5 -14 10 -14
16 0 -5 35 -36 59 -26 20 -88 29 -98 13z"/>
<path d="M2043 2325 c4 -26 -18 -72 -41 -84 -30 -16 -72 -1 -93 33 -10 17 -19
26 -19 19 0 -20 43 -62 71 -68 19 -5 34 0 56 19 35 29 44 52 32 81 -9 20 -9
20 -6 0z"/>
<path d="M7624 2314 c-3 -16 -19 -76 -36 -133 -16 -57 -28 -105 -26 -107 2 -1
21 -4 43 -5 44 -3 76 11 117 49 39 36 90 177 58 157 -6 -4 -9 -12 -8 -18 8
-44 -48 -138 -97 -161 -28 -14 -105 -23 -105 -13 0 2 9 30 19 63 29 88 53 186
47 191 -3 3 -8 -8 -12 -23z"/>
<path d="M806 2297 c-30 -29 -36 -41 -36 -76 0 -66 24 -107 115 -197 95 -95
114 -126 125 -199 l8 -50 1 45 c1 62 -38 127 -134 220 -84 80 -105 117 -105
180 0 41 26 80 61 92 8 3 11 8 8 12 -4 4 -23 -8 -43 -27z"/>
<path d="M6783 2285 c6 -19 12 -33 14 -32 6 7 -9 67 -17 67 -5 0 -3 -16 3 -35z"/>
<path d="M1925 2300 c-3 -5 -1 -10 4 -10 6 0 11 5 11 10 0 6 -2 10 -4 10 -3 0
-8 -4 -11 -10z"/>
<path d="M2860 2298 c0 -10 -14 -68 -31 -130 -17 -62 -34 -122 -37 -133 -3
-11 -2 -17 2 -14 15 14 82 268 75 281 -7 10 -9 9 -9 -4z"/>
<path d="M4030 2237 c-36 -34 -91 -75 -123 -91 -39 -19 -57 -34 -57 -47 0 -15
7 -19 34 -19 l34 0 -20 -72 c-11 -40 -28 -104 -39 -143 -38 -139 -41 -155 -35
-180 7 -27 51 -55 87 -55 40 0 110 42 140 83 16 22 29 44 29 49 0 18 -28 6
-48 -22 -13 -17 -32 -30 -43 -30 -19 0 -21 4 -15 38 5 29 4 33 -4 19 -16 -25
-8 -61 13 -65 11 -2 30 6 43 19 13 12 24 18 24 12 0 -20 -82 -83 -117 -89 -44
-8 -92 12 -99 42 -3 13 6 67 21 121 14 54 31 116 37 138 6 22 17 60 24 84 19
60 19 61 -21 61 -49 0 -44 15 17 46 29 15 83 56 120 92 38 36 70 63 73 60 3
-2 -4 -34 -14 -71 -10 -37 -16 -69 -13 -72 3 -3 18 -5 34 -5 16 0 28 -5 28
-13 0 -21 -22 -37 -50 -37 -31 0 -42 -18 -64 -105 -8 -33 -22 -85 -30 -115 -9
-30 -16 -62 -15 -70 0 -8 11 23 25 70 61 211 58 205 90 208 32 4 54 26 54 54
0 13 -8 18 -30 18 -35 0 -36 7 -15 76 29 95 15 97 -75 11z"/>
<path d="M5920 2208 c-30 -53 -76 -176 -68 -183 2 -3 12 21 23 53 10 31 33 85
51 120 41 75 36 83 -6 10z"/>
<path d="M6805 2215 c6 -36 144 -311 164 -328 7 -6 24 -10 36 -9 25 3 41 -13
48 -48 l4 -25 2 27 c1 34 -23 58 -59 58 -26 0 -33 10 -95 128 -37 70 -76 150
-86 177 -12 30 -17 38 -14 20z"/>
<path d="M5468 2171 c-97 -18 -128 -36 -83 -47 27 -7 27 -9 22 -58 -3 -28 -17
-93 -32 -144 -15 -52 -24 -96 -21 -99 6 -7 9 0 31 87 43 169 46 214 13 225
-19 6 -14 9 27 16 28 5 64 11 82 13 18 2 42 8 54 11 18 6 21 4 16 -9 -14 -36
-38 -138 -33 -143 5 -6 34 92 38 132 4 36 -2 37 -114 16z"/>
<path d="M4865 2163 c-38 -7 -80 -16 -92 -19 -31 -6 -30 -34 1 -34 13 0 27 -5
29 -10 3 -6 4 -5 3 2 -1 7 -13 15 -27 19 l-24 6 25 6 c14 3 52 11 85 17 33 6
68 14 77 16 15 4 17 0 13 -28 -4 -29 -4 -30 4 -8 20 56 20 56 -94 33z"/>
<path d="M8695 2164 c-16 -7 -41 -24 -55 -39 -21 -22 -25 -37 -25 -84 0 -56 2
-60 60 -130 90 -108 105 -132 105 -167 0 -35 -14 -51 -57 -64 -22 -7 -24 -8
-7 -9 36 -2 74 36 74 73 0 35 -15 59 -105 167 -58 71 -60 73 -59 131 1 73 23
100 95 116 64 15 72 15 63 0 -5 -8 0 -7 11 2 11 9 16 10 11 2 -5 -8 1 -15 16
-21 32 -12 58 -43 73 -88 22 -63 39 -48 48 40 5 43 7 80 5 81 -2 1 -30 0 -63
-3 -44 -3 -53 -6 -35 -11 14 -3 40 -3 57 1 l33 7 -6 -67 c-6 -65 -24 -110 -24
-60 0 16 -18 47 -47 82 -46 54 -50 56 -93 55 -25 -1 -58 -7 -75 -14z"/>
<path d="M9257 2160 c-100 -39 -196 -139 -236 -245 -21 -55 -28 -135 -13 -135
4 0 7 15 7 33 -2 43 21 123 50 172 61 105 193 185 304 185 48 0 65 -4 81 -20
11 -11 20 -16 20 -11 0 42 -129 54 -213 21z"/>
<path d="M4442 2161 c-11 -7 -11 -9 2 -14 8 -3 18 -2 20 2 8 12 77 -3 114 -24
52 -31 66 -111 37 -213 -42 -146 -184 -267 -313 -265 -69 1 -97 17 -129 71
-21 36 -25 52 -21 100 3 31 15 82 26 112 28 71 107 161 168 189 25 12 44 25
41 28 -10 9 -91 -43 -135 -87 -23 -23 -56 -72 -74 -108 -29 -58 -33 -77 -33
-144 0 -83 12 -110 69 -152 65 -49 207 -13 304 78 72 68 114 157 119 254 5 90
-12 128 -68 154 -43 20 -110 30 -127 19z"/>
<path d="M5190 2166 c0 -2 8 -10 18 -17 15 -13 16 -12 3 4 -13 16 -21 21 -21
13z"/>
<path d="M8199 2142 c-24 -16 -61 -47 -81 -70 -38 -42 -93 -140 -84 -149 2 -3
17 21 31 52 50 105 143 185 215 185 36 0 70 -23 70 -48 0 -21 20 -13 29 12 8
19 18 24 63 29 29 2 55 3 57 1 3 -3 -19 -77 -40 -132 -5 -13 -9 -33 -8 -45 0
-21 58 155 59 180 0 19 -121 5 -137 -15 -12 -14 -15 -13 -33 6 -30 32 -85 29
-141 -6z"/>
<path d="M5085 2150 c-3 -6 1 -7 9 -4 18 7 21 14 7 14 -6 0 -13 -4 -16 -10z"/>
<path d="M2255 2135 c-33 -7 -77 -16 -97 -19 -39 -7 -55 -36 -20 -36 13 0 14
2 3 9 -17 11 2 18 74 26 28 3 65 9 83 14 37 11 37 9 17 -49 -8 -23 -15 -52
-14 -64 0 -11 2 -16 4 -11 35 114 39 148 17 144 -4 -1 -34 -7 -67 -14z"/>
<path d="M3483 2125 c-27 -14 -71 -46 -97 -72 -48 -47 -106 -136 -106 -162 0
-8 14 12 30 45 45 88 113 154 194 188 55 23 62 20 29 -12 -17 -15 -37 -41 -46
-59 -31 -59 -57 -133 -47 -133 6 0 10 7 10 15 0 25 56 141 79 164 27 27 66 27
85 -1 18 -25 15 -80 -11 -182 -8 -32 -12 -60 -10 -62 6 -7 34 111 42 176 6 48
4 58 -14 74 -30 27 -26 33 17 31 46 -3 74 -19 96 -57 17 -29 23 -109 11 -147
-4 -12 -2 -21 4 -21 11 0 16 55 11 120 -3 45 -34 89 -76 106 -54 23 -142 18
-201 -11z"/>
<path d="M8735 2126 c-22 -33 -9 -61 69 -150 64 -73 92 -131 83 -167 -3 -10
-1 -19 4 -19 12 0 10 48 -5 89 -11 30 -29 56 -91 125 -45 52 -53 62 -59 83 -5
15 0 27 15 42 13 12 18 21 11 21 -6 0 -19 -11 -27 -24z"/>
<path d="M9257 2117 c-30 -31 -84 -117 -74 -117 2 0 21 27 41 60 38 62 60 80
95 80 17 0 21 -6 21 -35 0 -20 -9 -54 -19 -76 -12 -25 -15 -36 -7 -29 23 18
38 65 34 106 -3 34 -6 39 -31 42 -22 3 -36 -5 -60 -31z"/>
<path d="M1888 2122 c-97 -19 -126 -35 -82 -46 26 -7 26 -9 21 -59 -3 -29 -21
-109 -41 -179 -50 -175 -47 -206 18 -228 29 -9 41 -8 74 9 41 21 96 77 114
117 19 41 -1 39 -38 -4 -19 -23 -40 -42 -46 -42 -17 0 -3 76 43 231 23 77 39
142 36 145 -2 2 -17 -39 -32 -93 -15 -54 -36 -129 -47 -168 -32 -112 -21 -159
25 -109 35 38 45 25 11 -15 -41 -50 -94 -72 -138 -60 -26 7 -38 17 -42 36 -7
27 -5 39 44 223 37 143 35 129 33 166 -1 23 -7 34 -23 39 -17 5 1 11 64 20 47
7 92 16 99 20 9 6 10 1 7 -19 -3 -15 -2 -24 2 -19 16 16 15 47 0 49 -8 1 -54
-5 -102 -14z m95 -387 c-3 -9 -8 -14 -10 -11 -3 3 -2 9 2 15 9 16 15 13 8 -4z"/>
<path d="M2466 2125 c-28 -15 -116 -98 -116 -111 0 -3 27 19 60 49 86 80 146
88 178 24 11 -22 9 -38 -12 -114 -13 -48 -27 -101 -30 -118 -10 -54 11 3 40
110 27 99 27 99 8 135 -16 30 -25 35 -59 38 -22 1 -53 -4 -69 -13z"/>
<path d="M3027 2133 c-13 -12 -7 -23 12 -23 27 0 45 -25 32 -47 -15 -28 -160
-168 -166 -161 -4 3 3 36 14 73 12 37 21 72 20 79 0 6 -11 -23 -25 -64 -23
-73 -24 -105 -4 -98 5 2 48 41 95 88 90 88 101 114 58 135 -17 9 -2 11 73 11
52 -1 94 -2 94 -2 0 -1 -19 -12 -43 -23 -24 -11 -66 -42 -95 -68 l-52 -48 31
-120 c40 -156 48 -167 94 -118 14 15 25 22 25 15 0 -7 -25 -38 -55 -68 -47
-48 -60 -55 -87 -52 -26 2 -37 10 -51 38 -12 24 -15 27 -11 10 10 -39 34 -60
68 -60 24 0 42 13 88 60 54 55 72 90 48 90 -6 0 -22 -12 -35 -27 -16 -19 -27
-25 -34 -18 -5 6 -23 64 -39 130 l-30 120 46 43 c26 23 71 54 100 68 28 13 52
29 52 34 0 11 -213 14 -223 3z"/>
<path d="M4404 2124 c-18 -14 -18 -14 6 -3 31 14 36 19 24 19 -6 0 -19 -7 -30
-16z"/>
<path d="M4482 2125 c3 -5 11 -26 16 -45 9 -31 10 -32 11 -9 1 15 -7 35 -16
46 -10 10 -15 14 -11 8z"/>
<path d="M5024 2097 c-22 -23 -51 -58 -66 -77 -23 -29 -27 -32 -28 -15 l-1 20
-9 -20 c-13 -30 -12 -45 5 -45 14 0 -5 -47 -66 -162 -5 -10 -6 -18 -1 -18 4 0
21 30 37 68 33 78 73 139 122 188 40 40 69 42 66 4 -2 -22 -2 -23 6 -5 4 11 6
26 4 33 -10 24 -45 11 -88 -34 -25 -25 -45 -42 -45 -37 0 11 45 73 63 88 18
16 51 55 45 55 -3 0 -23 -19 -44 -43z m-71 -122 c-3 -9 -8 -14 -10 -11 -3 3
-2 9 2 15 9 16 15 13 8 -4z"/>
<path d="M8250 2118 c-25 -27 -59 -90 -71 -132 -13 -44 5 -18 25 37 23 62 61
107 91 107 28 0 35 -17 35 -81 0 -86 -63 -236 -116 -278 -13 -10 -24 -22 -24
-27 0 -4 14 5 31 22 40 38 83 115 103 183 19 64 21 162 4 179 -19 19 -55 14
-78 -10z"/>
<path d="M1535 2119 c-28 -16 -103 -88 -127 -124 -12 -16 5 -2 36 33 65 69 95
89 143 90 26 1 36 -6 53 -33 12 -19 19 -38 16 -43 -3 -5 -7 -19 -10 -33 -2
-13 -14 -59 -26 -102 -12 -43 -20 -81 -18 -83 4 -3 32 92 64 217 2 9 -6 31
-19 50 -18 26 -30 35 -57 36 -19 2 -44 -2 -55 -8z"/>
<path d="M2942 2101 c-6 -17 -9 -31 -6 -31 7 0 25 52 20 57 -2 2 -8 -10 -14
-26z"/>
<path d="M5219 2116 c9 -11 7 -31 -9 -87 -58 -211 -73 -280 -62 -291 9 -9 20
-4 45 20 18 18 36 29 40 26 4 -4 7 0 7 9 0 27 -16 20 -48 -20 -17 -21 -34 -35
-38 -31 -7 8 14 97 62 267 24 81 24 121 2 121 -7 0 -6 -5 1 -14z"/>
<path d="M1377 2085 c-3 -11 -8 -38 -12 -60 -5 -39 -5 -39 10 8 9 27 14 54 12
60 -2 7 -7 3 -10 -8z"/>
<path d="M4349 2035 c-40 -89 -79 -228 -79 -284 0 -91 65 -120 119 -54 33 39
91 169 91 200 0 10 -11 -12 -24 -49 -33 -92 -77 -161 -110 -173 -24 -8 -31 -6
-47 14 -11 13 -19 39 -19 61 0 53 35 181 74 272 41 94 37 105 -5 13z"/>
<path d="M4941 2083 c0 -12 -4 -30 -7 -40 -5 -17 -5 -17 6 0 6 10 9 28 7 40
-4 22 -4 22 -6 0z"/>
<path d="M9452 2057 c-11 -24 -37 -58 -58 -75 -91 -74 -92 -75 -46 -49 50 28
96 80 117 131 22 51 10 44 -13 -7z"/>
<path d="M2163 2036 c-1 -24 -14 -85 -28 -135 -15 -51 -25 -95 -22 -97 3 -3
12 21 21 53 9 32 20 72 25 88 15 46 25 135 15 135 -5 0 -10 -20 -11 -44z"/>
<path d="M4777 1968 c-47 -156 -58 -200 -53 -206 3 -3 6 -3 6 -1 0 2 18 67 39
144 22 77 38 141 36 143 -2 2 -15 -34 -28 -80z"/>
<path d="M2371 1999 c-22 -23 -41 -37 -41 -32 0 5 3 13 8 19 4 5 0 1 -10 -8
-21 -23 -28 -23 -28 0 -1 10 -6 6 -14 -13 -18 -40 -3 -55 23 -24 28 33 26 13
-2 -25 -26 -34 -77 -140 -77 -158 0 -15 -20 -78 -32 -101 -9 -17 -4 -36 6 -26
3 2 14 39 25 82 43 163 180 355 223 312 3 -3 -12 -62 -33 -132 -46 -151 -54
-199 -40 -235 28 -74 166 -26 221 77 19 35 4 44 -23 15 l-22 -24 23 18 c12 11
22 14 22 9 0 -16 -29 -37 -57 -41 -24 -3 -25 -1 -18 30 15 68 15 82 1 43 -9
-22 -16 -51 -16 -64 0 -20 4 -23 25 -19 14 3 25 2 25 -2 0 -16 -70 -60 -102
-65 -42 -7 -81 24 -73 58 3 12 7 38 9 57 3 19 20 87 39 150 18 64 32 121 29
128 -8 25 -50 11 -91 -29z"/>
<path d="M4493 2005 c0 -22 2 -30 4 -17 2 12 2 30 0 40 -3 9 -5 -1 -4 -23z"/>
<path d="M7542 2016 c-14 -32 -15 -36 -3 -36 5 0 11 10 13 23 3 19 8 22 48 20
50 -3 85 -18 96 -42 4 -9 11 -43 14 -76 l7 -60 1 52 c3 91 -27 127 -115 139
-46 6 -50 4 -61 -20z"/>
<path d="M1444 1998 c-58 -62 -161 -224 -150 -235 3 -3 17 19 32 49 78 157
196 269 181 171 -4 -25 -3 -33 4 -26 6 6 9 23 7 39 -4 42 -36 43 -74 2z"/>
<path d="M7832 1989 c20 -20 40 -49 43 -65 11 -46 13 -51 14 -23 1 31 -34 86
-69 107 -16 10 -12 4 12 -19z"/>
<path d="M2767 1943 c-17 -75 -15 -101 2 -32 6 24 15 56 20 72 5 15 6 27 1 27
-4 0 -15 -30 -23 -67z"/>
<path d="M5056 1949 c-9 -34 -15 -64 -12 -66 3 -3 10 14 16 37 6 23 16 53 20
66 5 13 6 24 1 24 -4 0 -15 -28 -25 -61z"/>
<path d="M5528 1990 c-3 -14 -15 -56 -26 -93 -11 -38 -16 -65 -12 -60 12 13
52 153 47 166 -2 7 -6 1 -9 -13z"/>
<path d="M5839 2001 c-2 -6 -26 -15 -53 -20 -54 -10 -66 -22 -65 -66 l1 -30 7
31 c11 46 17 51 62 57 41 5 68 21 57 32 -3 4 -8 2 -9 -4z"/>
<path d="M9170 1971 c-5 -11 -10 -31 -10 -46 0 -23 3 -25 28 -19 54 13 112 49
112 70 0 4 -11 -3 -24 -15 -22 -21 -97 -54 -104 -46 -2 2 1 19 6 39 11 40 8
46 -8 17z"/>
<path d="M1346 1963 c-2 -10 -7 -28 -11 -40 -9 -33 10 -28 36 10 l23 32 -24
-20 -23 -20 7 28 c7 29 0 38 -8 10z"/>
<path d="M7526 1962 c-3 -5 -7 -19 -9 -33 -5 -24 -55 -202 -64 -226 -7 -18
108 -17 150 0 36 15 113 95 101 105 -4 4 -9 2 -11 -5 -11 -29 -50 -67 -87 -84
-43 -20 -136 -26 -136 -9 0 5 12 49 26 97 36 121 48 184 30 155z"/>
<path d="M4485 1949 c-4 -6 -5 -12 -2 -15 2 -3 7 2 10 11 7 17 1 20 -8 4z"/>
<path d="M8156 1935 c-3 -8 -1 -15 4 -15 6 0 10 7 10 15 0 8 -2 15 -4 15 -2 0
-6 -7 -10 -15z"/>
<path d="M8441 1934 c0 -11 3 -14 6 -6 3 7 2 16 -1 19 -3 4 -6 -2 -5 -13z"/>
<path d="M1497 1933 c-11 -18 -48 -165 -43 -170 3 -3 8 8 12 23 3 16 14 57 24
92 16 56 19 74 7 55z"/>
<path d="M3426 1895 c-9 -26 -7 -32 5 -12 6 10 9 21 6 23 -2 3 -7 -2 -11 -11z"/>
<path d="M8021 1898 c0 -9 -4 -25 -7 -35 -5 -17 -5 -17 6 0 6 10 9 25 7 35 -4
15 -5 15 -6 0z"/>
<path d="M8148 1898 c-3 -7 -6 -39 -7 -71 -2 -56 9 -87 32 -87 6 0 3 6 -8 14
-16 11 -17 22 -12 85 7 67 5 87 -5 59z"/>
<path d="M8417 1857 c-28 -92 -31 -126 -12 -133 10 -4 27 3 46 22 16 15 29 23
29 17 0 -16 -81 -87 -118 -102 -25 -11 -39 -11 -58 -2 -33 15 -40 36 -26 85
16 60 0 64 -41 9 -19 -26 -50 -59 -67 -72 -42 -31 -106 -34 -126 -6 -20 27
-37 93 -32 126 3 16 0 25 -5 22 -11 -7 -1 -102 14 -137 7 -14 24 -30 40 -36
53 -23 114 8 175 88 l35 47 -6 -50 c-11 -86 41 -116 125 -73 40 21 110 96 110
119 0 18 -22 8 -47 -21 -26 -31 -53 -40 -53 -17 0 7 9 46 20 86 24 85 22 107
-3 28z"/>
<path d="M9191 1891 c-29 -5 -36 -12 -43 -39 -14 -55 6 -100 55 -121 36 -15
45 -16 81 -4 23 8 58 28 79 45 40 32 62 34 27 3 -11 -10 -20 -22 -20 -28 0 -5
11 1 25 14 13 13 25 30 25 37 0 17 -25 15 -41 -4 -34 -41 -126 -70 -175 -54
-26 9 -36 19 -43 47 -6 19 -7 48 -4 64 4 23 11 29 32 29 14 0 33 5 41 10 16
10 13 11 -39 1z"/>
<path d="M2898 1851 c-32 -28 -47 -64 -64 -151 -3 -19 -11 -40 -16 -47 -10
-12 -118 -17 -118 -5 0 4 11 49 25 100 14 51 25 99 24 105 -1 18 -45 -132 -54
-181 l-7 -43 69 3 68 3 13 45 c7 25 20 69 28 98 17 59 58 98 75 71 7 -11 9
-11 9 3 0 29 -18 29 -52 -1z"/>
<path d="M5731 1869 c-2 -34 33 -126 84 -222 30 -56 55 -97 55 -92 0 6 -23 53
-51 105 -28 52 -59 124 -69 160 -10 36 -19 58 -19 49z"/>
<path d="M3271 1854 c0 -11 3 -14 6 -6 3 7 2 16 -1 19 -3 4 -6 -2 -5 -13z"/>
<path d="M3708 1822 c-35 -62 -100 -123 -168 -158 -45 -24 -67 -29 -119 -28
-58 2 -66 5 -97 36 -22 22 -38 49 -44 78 l-9 45 3 -43 c8 -85 57 -127 150
-127 77 0 156 35 218 97 41 40 104 135 96 143 -2 2 -16 -17 -30 -43z"/>
<path d="M5022 1823 c-26 -121 -26 -120 3 -149 21 -21 32 -25 58 -20 41 8 97
48 127 89 18 26 15 24 -19 -11 -71 -72 -151 -89 -171 -37 -8 21 10 141 25 165
3 6 2 10 -4 10 -5 0 -14 -21 -19 -47z"/>
<path d="M7879 1845 c-4 -16 -9 -39 -13 -50 -4 -11 0 -7 9 8 9 16 15 38 13 50
-3 18 -5 17 -9 -8z"/>
<path d="M3416 1848 c-26 -84 -27 -136 -3 -170 25 -38 61 -37 99 4 30 33 72
108 59 108 -4 0 -14 -15 -23 -33 -28 -59 -68 -98 -97 -95 -37 4 -47 41 -35
128 9 65 9 88 0 58z"/>
<path d="M1178 1830 c-6 -24 -40 -152 -54 -197 -6 -22 -4 -23 64 -23 67 0 70
1 79 28 25 68 34 104 30 109 -3 3 -11 -15 -17 -39 -24 -85 -27 -88 -92 -88
-53 0 -73 10 -49 24 5 3 12 27 16 53 4 26 14 64 22 85 8 20 13 45 11 55 -3 14
-5 13 -10 -7z"/>
<path d="M3576 1825 c-9 -26 -7 -32 5 -12 6 10 9 21 6 23 -2 3 -7 -2 -11 -11z"/>
<path d="M495 1794 c-3 -22 -10 -55 -15 -75 -12 -45 -13 -100 -1 -118 8 -12
12 -12 25 -2 12 10 34 12 79 8 49 -5 57 -4 37 4 -14 6 -51 9 -82 6 l-57 -5 4
47 c2 25 8 73 14 106 5 33 8 61 6 63 -2 2 -6 -13 -10 -34z"/>
<path d="M2950 1816 c0 -8 4 -17 9 -20 5 -4 7 3 4 14 -6 23 -13 26 -13 6z"/>
<path d="M3271 1814 c0 -11 3 -14 6 -6 3 7 2 16 -1 19 -3 4 -6 -2 -5 -13z"/>
<path d="M8554 1816 c-3 -8 -4 -27 -1 -43 4 -28 4 -28 6 4 1 41 18 51 25 15 4
-15 16 -41 27 -57 22 -32 22 -30 -3 25 -8 19 -18 43 -21 53 -8 21 -26 22 -33
3z"/>
<path d="M7331 1788 c-32 -86 -44 -102 -88 -111 -24 -4 -43 -13 -43 -18 0 -7
84 -9 248 -7 233 3 250 4 298 26 28 13 67 39 85 59 l34 35 -55 -41 c-30 -22
-62 -41 -70 -41 -9 0 -22 -6 -28 -12 -9 -9 -75 -13 -232 -15 l-220 -2 27 23
c15 13 34 47 44 77 19 59 19 80 0 27z"/>
<path d="M1590 1805 c-1 -5 -3 -17 -5 -25 -2 -8 -7 -33 -10 -55 -4 -33 -3 -30
10 14 9 30 13 59 11 65 -3 7 -5 7 -6 1z"/>
<path d="M5334 1773 c-14 -72 4 -108 62 -119 46 -8 108 28 156 91 49 64 34 87
-18 27 -19 -23 -40 -42 -45 -42 -5 0 -10 15 -10 33 -2 31 -2 32 -6 3 -7 -48
13 -54 52 -16 19 19 35 30 35 24 -1 -15 -45 -60 -88 -89 -34 -22 -48 -26 -77
-21 -45 9 -58 34 -50 97 8 58 1 66 -11 12z"/>
<path d="M7037 1793 c-4 -3 -7 -13 -7 -20 0 -22 -79 -152 -124 -206 -23 -27
-63 -62 -91 -78 -27 -16 -44 -29 -37 -29 22 0 97 57 136 101 45 53 114 166
126 208 9 32 8 36 -3 24z"/>
<path d="M2091 1745 c-7 -27 -17 -60 -22 -73 -16 -40 -11 -52 21 -52 17 0 30
5 30 11 0 6 -8 8 -19 4 -20 -6 -38 20 -21 30 6 4 10 17 10 31 0 14 5 34 11 45
5 11 9 28 7 37 -2 9 -9 -5 -17 -33z"/>
<path d="M2961 1770 c0 -8 4 -24 9 -35 l9 -20 0 20 c0 11 -4 27 -9 35 -9 13
-10 13 -9 0z"/>
<path d="M1007 1763 c-4 -3 -7 -14 -7 -23 0 -33 -72 -99 -128 -119 -63 -21
-80 -34 -26 -19 81 22 131 61 160 127 15 32 15 48 1 34z"/>
<path d="M8862 1735 c-12 -19 -39 -43 -59 -54 -21 -11 -33 -20 -27 -21 28 -1
127 90 113 104 -2 3 -14 -11 -27 -29z"/>
<path d="M1622 1722 l-23 -37 30 35 c37 42 41 30 6 -16 -14 -18 -25 -36 -25
-40 0 -13 59 70 60 84 0 24 -26 11 -48 -26z"/>
<path d="M4845 1728 c-11 -49 -20 -55 -80 -55 -59 0 -60 2 -45 41 5 14 6 26 2
26 -4 0 -13 -18 -19 -40 l-10 -40 72 0 73 0 11 46 c7 26 10 48 7 51 -2 2 -7
-11 -11 -29z"/>
<path d="M9010 1754 c0 -28 48 -80 85 -92 74 -25 203 6 251 60 19 21 19 21 -3
9 -12 -6 -25 -16 -28 -21 -14 -23 -83 -42 -152 -43 -78 -2 -98 8 -134 68 -11
17 -19 25 -19 19z"/>
<path d="M1441 1738 c0 -9 -4 -25 -7 -35 -5 -14 -4 -15 5 -7 7 7 11 22 8 35
-2 13 -5 16 -6 7z"/>
<path d="M8540 1700 c0 -11 2 -20 4 -20 2 0 6 9 9 20 3 11 1 20 -4 20 -5 0 -9
-9 -9 -20z"/>
<path d="M8654 1696 c11 -9 24 -16 30 -16 12 0 7 5 -24 19 -24 11 -24 11 -6
-3z"/>
<path d="M8558 1663 c-22 -13 -21 -13 7 -6 16 3 42 6 57 6 15 0 25 4 22 9 -7
12 -60 6 -86 -9z"/>
<path d="M8679 1657 c5 -5 24 -7 42 -5 33 3 33 4 -8 8 -23 3 -39 2 -34 -3z"/>
<path d="M1440 1641 c0 -6 4 -13 10 -16 6 -3 7 1 4 9 -7 18 -14 21 -14 7z"/>
<path d="M1533 1627 c-17 -7 -35 -15 -39 -20 -10 -10 58 13 71 24 11 11 8 11
-32 -4z"/>
<path d="M656 1602 c-7 -12 66 -22 79 -11 5 6 1 9 -10 9 -11 0 -30 3 -41 6
-12 3 -24 1 -28 -4z"/>
<path d="M5870 1539 c0 -3 5 -20 11 -37 15 -43 53 -65 100 -59 45 6 47 1 23
-69 -8 -25 -13 -48 -10 -51 8 -8 38 107 32 123 -4 10 -15 12 -40 8 -45 -7 -71
8 -95 54 -11 20 -20 34 -21 31z"/>
<path d="M6730 1463 c-8 -3 -24 -14 -35 -24 -11 -9 -47 -32 -80 -49 -33 -17
-49 -28 -35 -24 40 11 93 40 114 63 11 12 27 21 37 21 10 0 21 5 24 10 7 11
-1 12 -25 3z"/>
<path d="M6535 1360 c-3 -5 -1 -10 4 -10 6 0 11 5 11 10 0 6 -2 10 -4 10 -3 0
-8 -4 -11 -10z"/>
<path d="M6505 1340 c-4 -6 -5 -56 -4 -113 4 -174 -32 -348 -95 -460 -35 -63
-112 -167 -147 -200 -25 -23 -105 -59 -192 -86 -36 -11 -80 -27 -96 -35 -29
-15 -86 -13 -251 9 l-35 5 30 -10 c17 -6 73 -15 126 -21 83 -10 99 -9 127 5
17 9 68 28 114 42 130 41 171 66 232 142 148 184 197 335 200 619 1 62 0 113
-1 113 -1 0 -5 -5 -8 -10z"/>
<path d="M5967 1252 c-10 -31 -21 -64 -24 -72 -4 -10 -2 -12 5 -5 12 13 45
112 40 125 -2 5 -11 -16 -21 -48z"/>
<path d="M5910 1098 c-47 -130 -94 -187 -205 -244 -39 -19 -59 -32 -45 -28 40
11 81 34 135 74 38 29 59 55 87 111 43 88 63 138 56 145 -3 2 -15 -24 -28 -58z"/>
<path d="M5565 796 c-52 -24 -94 -78 -82 -107 3 -9 6 -6 6 7 1 34 40 74 95 99
28 13 47 24 41 24 -5 0 -33 -10 -60 -23z"/>
<path d="M5510 605 c0 -20 140 -145 162 -145 6 0 -17 21 -51 46 -33 25 -72 60
-86 77 -14 18 -25 27 -25 22z"/>
</g>
</svg>
